<?xml version="1.0" standalone="no"?>
<!DOCTYPE svg PUBLIC "-//W3C//DTD SVG 20010904//EN"
 "http://www.w3.org/TR/2001/REC-SVG-20010904/DTD/svg10.dtd">
<svg version="1.0" xmlns="http://www.w3.org/2000/svg"
 width="280.000000pt" height="280.000000pt" viewBox="0 0 280.000000 280.000000"
 preserveAspectRatio="xMidYMid meet">
<metadata>
Created by potrace 1.11, written by Peter Selinger 2001-2013
</metadata>
<g transform="translate(0.000000,280.000000) scale(0.100000,-0.100000)"
fill="#000000" stroke="none">
<path d="M1374 2789 c-38 -7 -94 -36 -338 -177 -49 -29 -91 -52 -93 -52 -2 0
-20 -11 -41 -24 -20 -13 -172 -101 -337 -196 -165 -95 -313 -184 -328 -199
-16 -14 -38 -43 -48 -64 -19 -36 -20 -65 -21 -675 -1 -622 0 -638 20 -683 28
-64 79 -110 186 -169 50 -27 109 -61 131 -73 63 -37 226 -132 400 -232 88 -51
216 -125 285 -166 124 -73 126 -74 207 -77 89 -4 74 -9 238 83 61 34 595 342
760 438 172 100 193 116 221 162 l24 42 0 662 c0 593 -2 665 -16 694 -29 55
-78 93 -234 179 -25 14 -112 64 -193 112 -82 47 -150 86 -152 86 -2 0 -32 17
-66 38 -35 22 -84 50 -109 64 -25 14 -84 48 -132 77 -48 28 -91 51 -97 51 -6
0 -11 3 -11 8 0 4 -10 12 -23 18 -12 6 -46 24 -76 39 -69 35 -105 43 -157 34z"/>
</g>
</svg>
